<?xml version="1.0" standalone="no"?>
<!DOCTYPE svg PUBLIC "-//W3C//DTD SVG 20010904//EN"
 "http://www.w3.org/TR/2001/REC-SVG-20010904/DTD/svg10.dtd">
<svg version="1.0" xmlns="http://www.w3.org/2000/svg"
 width="2000.000000pt" height="2000.000000pt" viewBox="0 0 2000.000000 2000.000000"
 preserveAspectRatio="xMidYMid meet">

<g transform="translate(0.000000,2000.000000) scale(0.100000,-0.100000)"
fill="#000000" stroke="none">
<path d="M6440 13629 c-176 -24 -222 -34 -329 -71 -260 -89 -503 -234 -711
-425 -36 -32 -112 -97 -170 -143 -209 -169 -352 -300 -706 -654 -369 -370
-504 -513 -629 -671 -320 -406 -524 -828 -590 -1225 -9 -58 -21 -114 -26 -125
-25 -57 -41 -254 -36 -435 8 -261 55 -462 162 -688 45 -94 45 -95 45 -206 0
-159 18 -628 30 -781 14 -173 71 -521 120 -725 22 -91 47 -194 55 -229 46
-192 179 -356 330 -405 281 -92 374 -112 781 -165 658 -88 1094 -101 1539 -46
66 8 143 17 170 20 l50 6 35 -57 c41 -66 143 -165 203 -196 68 -35 226 -37
389 -4 325 66 871 265 1526 555 556 247 614 309 628 676 7 163 -9 259 -77 480
-47 150 -180 490 -267 681 l-59 130 14 79 c60 355 68 972 18 1530 -8 88 -17
198 -20 245 -18 247 -74 469 -149 589 -12 20 -35 68 -50 106 -49 125 -216 419
-337 595 -81 118 -140 191 -341 418 -557 628 -994 993 -1330 1111 -99 34 -176
43 -268 30z m426 -1640 c216 -205 394 -375 394 -378 0 -3 -68 -16 -150 -29
-230 -35 -411 -94 -556 -182 -156 -95 -265 -183 -366 -294 -126 -138 -214
-271 -288 -435 -110 -242 -247 -517 -303 -606 -183 -295 -484 -573 -685 -631
-82 -24 -211 -22 -287 5 -145 52 -298 203 -359 355 -30 77 -27 206 9 316 81
251 322 608 667 988 143 158 251 255 646 585 265 221 854 677 874 677 5 0 187
-167 404 -371z m510 -1254 c156 -27 277 -98 364 -213 118 -158 152 -266 152
-477 0 -77 -7 -174 -14 -215 -12 -64 -17 -75 -34 -73 -10 1 -63 6 -117 12
-273 30 -513 1 -790 -96 -118 -40 -196 -80 -327 -164 -134 -86 -186 -128 -282
-227 -149 -155 -247 -345 -268 -519 -5 -43 -17 -114 -26 -158 -13 -60 -17
-133 -17 -290 -1 -184 3 -229 26 -365 15 -85 38 -197 52 -249 14 -52 23 -96
21 -98 -7 -7 -900 26 -1036 37 -95 9 -126 16 -177 40 -118 58 -200 184 -247
380 -24 101 -53 327 -43 337 3 2 79 4 169 4 187 0 323 17 435 54 270 91 507
298 698 610 27 44 70 107 96 140 144 187 263 389 443 756 74 151 158 308 187
348 133 190 328 349 513 417 73 28 106 29 222 9z m313 -1826 c36 -6 103 -28
147 -50 106 -50 193 -141 253 -263 50 -102 137 -325 180 -458 37 -118 91 -325
91 -354 0 -17 -20 -27 -142 -67 -79 -25 -213 -65 -298 -87 -85 -22 -175 -46
-200 -55 -119 -38 -408 -95 -488 -95 -108 0 -211 127 -287 351 -32 96 -36 122
-43 266 -12 228 13 428 66 527 56 103 168 201 283 247 113 44 301 61 438 38z"/>
<path d="M16126 12140 c-146 -44 -114 -263 39 -263 155 0 185 222 36 263 -41
11 -36 11 -75 0z"/>
<path d="M9950 11600 l0 -520 140 0 140 0 2 234 3 235 169 -235 168 -234 170
0 c135 0 168 3 161 13 -6 6 -99 126 -207 265 l-197 254 190 254 191 254 -159
0 -159 0 -163 -237 -164 -238 -3 238 -2 237 -140 0 -140 0 0 -520z"/>
<path d="M11268 11799 c-128 -19 -254 -118 -298 -236 -31 -82 -25 -206 13
-285 112 -229 443 -283 635 -104 117 110 151 281 82 417 -33 63 -112 142 -174
172 -43 21 -170 51 -196 46 -3 -1 -31 -5 -62 -10z m157 -219 c43 -27 65 -75
65 -145 0 -109 -50 -165 -148 -165 -33 0 -65 7 -84 18 -91 53 -91 238 0 295
39 24 126 22 167 -3z"/>
<path d="M12302 11799 c-54 -10 -100 -38 -146 -89 -20 -22 -38 -40 -41 -40 -3
0 -5 27 -5 60 l0 60 -110 0 -110 0 0 -515 0 -515 115 0 116 0 -3 220 c-2 121
-1 220 2 219 3 0 19 -19 35 -42 43 -59 107 -89 192 -90 110 -2 158 17 230 88
52 52 64 72 82 129 43 139 20 312 -54 409 -62 81 -195 128 -303 106z m54 -205
c54 -26 79 -76 79 -159 0 -119 -54 -175 -168 -175 -100 0 -161 65 -161 175 0
72 22 118 74 152 40 28 125 31 176 7z"/>
<path d="M13125 11799 c-120 -18 -234 -101 -284 -209 -37 -78 -42 -211 -11
-292 46 -124 164 -209 313 -228 153 -19 291 20 362 102 19 23 35 44 35 48 0 3
-40 19 -90 35 l-90 29 -22 -21 c-13 -12 -36 -26 -51 -32 -45 -17 -138 -13
-176 7 -39 21 -71 73 -71 114 l0 28 271 0 272 0 -7 64 c-26 257 -197 392 -451
355z m161 -170 c30 -28 39 -43 48 -81 l6 -28 -150 0 -151 0 7 23 c17 55 48 96
84 110 8 4 41 5 72 4 45 -3 64 -9 84 -28z"/>
<path d="M14175 11803 c-86 -19 -138 -56 -187 -132 l-28 -45 0 82 0 82 -115 0
-115 0 0 -355 0 -355 120 0 120 0 0 173 c0 188 7 230 47 278 37 43 80 59 162
59 l69 0 5 33 c4 17 9 64 13 103 l6 71 -32 7 c-18 3 -35 5 -39 5 -3 -1 -15 -3
-26 -6z"/>
<path d="M14602 11799 c-161 -27 -262 -168 -262 -364 0 -148 69 -288 168 -339
48 -25 143 -37 200 -26 67 12 85 22 149 83 l53 50 0 -62 0 -61 110 0 110 0 0
355 0 355 -110 0 -110 0 0 -62 0 -63 -40 47 c-66 76 -156 106 -268 87z m238
-207 c74 -39 103 -165 57 -247 -28 -50 -76 -75 -145 -75 -111 0 -167 57 -167
170 0 77 26 128 78 154 44 21 134 21 177 -2z"/>
<path d="M15522 11800 c-70 -10 -138 -46 -175 -93 -25 -30 -32 -49 -35 -97 -8
-113 43 -173 185 -215 155 -47 173 -57 173 -100 0 -80 -198 -72 -318 13 -35
25 -28 35 -61 -86 l-20 -72 50 -25 c110 -56 288 -75 399 -42 65 19 130 71 155
123 22 47 22 141 0 183 -23 45 -93 87 -204 121 -140 44 -169 72 -121 115 30
27 148 17 218 -19 30 -15 55 -26 56 -24 6 8 48 160 45 163 -20 19 -237 68
-284 63 -5 0 -34 -4 -63 -8z"/>
<path d="M16050 11435 l0 -355 120 0 120 0 0 355 0 355 -120 0 -120 0 0 -355z"/>
<path d="M10169 10636 c-98 -26 -182 -96 -223 -185 -16 -36 -20 -66 -20 -136
0 -166 49 -217 289 -295 119 -40 155 -69 155 -127 0 -45 -20 -77 -60 -98 -69
-36 -174 -5 -265 77 l-50 46 -62 -102 -63 -101 42 -38 c96 -88 253 -131 399
-109 138 20 236 88 290 201 31 64 38 199 14 271 -34 101 -92 144 -274 200
-105 32 -161 68 -161 104 0 106 150 128 281 41 l36 -23 42 96 42 97 -21 17
c-27 22 -120 57 -184 69 -65 12 -151 10 -207 -5z"/>
<path d="M10841 10633 c-96 -48 -94 -201 3 -247 43 -20 79 -20 123 1 46 22 73
67 73 123 0 108 -102 171 -199 123z"/>
<path d="M11623 10296 c-50 -16 -88 -45 -125 -93 l-28 -37 0 62 0 62 -125 0
-125 0 0 -355 0 -355 124 0 124 0 4 233 c3 174 7 239 18 260 29 58 117 76 166
33 35 -30 43 -91 43 -343 l1 -183 119 0 119 0 4 223 c5 282 16 314 113 325 57
6 90 -15 104 -65 6 -21 11 -137 11 -260 l0 -223 126 0 126 0 -4 278 c-5 296
-10 325 -61 380 -58 63 -171 87 -271 58 -44 -13 -70 -29 -107 -66 -27 -27 -49
-45 -49 -40 0 6 -16 28 -36 50 -58 64 -171 87 -271 56z"/>
<path d="M13001 10299 c-45 -14 -113 -61 -140 -96 l-20 -28 -1 58 0 57 -120 0
-120 0 0 -515 0 -515 120 0 120 0 0 215 0 215 37 -41 c58 -64 103 -83 203 -83
68 -1 95 4 137 23 98 43 166 148 184 282 26 183 -50 352 -184 409 -59 26 -164
35 -216 19z m87 -216 c46 -34 66 -79 66 -148 0 -69 -20 -114 -67 -149 -41 -31
-149 -30 -193 1 -48 34 -67 83 -62 162 4 76 27 118 80 145 45 23 138 17 176
-11z"/>
<path d="M13747 10296 c-92 -25 -179 -110 -208 -204 -18 -59 -23 -208 -9 -271
34 -153 130 -244 272 -258 99 -9 167 15 234 82 l54 54 0 -60 0 -59 115 0 115
0 0 355 0 355 -115 0 -115 0 0 -56 0 -57 -50 51 c-76 77 -175 100 -293 68z
m281 -212 c15 -11 37 -40 50 -65 19 -36 22 -54 18 -98 -8 -91 -61 -143 -153
-148 -123 -8 -192 74 -172 205 13 88 76 136 172 129 37 -2 67 -10 85 -23z"/>
<path d="M14923 10296 c-64 -21 -110 -53 -145 -103 l-33 -45 -3 71 -3 71 -114
0 -115 0 0 -355 0 -355 124 0 124 0 4 213 c3 195 5 215 25 253 49 93 182 101
225 14 16 -30 18 -66 18 -257 l0 -223 126 0 126 0 -4 273 c-4 281 -8 309 -50
370 -47 67 -207 105 -305 73z"/>
<path d="M10780 9935 l0 -355 125 0 125 0 0 355 0 355 -125 0 -125 0 0 -355z"/>
<path d="M10921 9123 c-96 -48 -94 -201 3 -247 43 -20 79 -20 123 1 46 22 73
67 73 123 0 108 -102 171 -199 123z"/>
<path d="M12321 9123 c-96 -48 -94 -201 3 -247 43 -20 79 -20 123 1 46 22 73
67 73 123 0 108 -102 171 -199 123z"/>
<path d="M9950 8591 l0 -521 130 0 130 0 0 175 0 175 98 0 c226 0 324 45 384
175 20 43 23 66 23 165 0 106 -2 120 -28 172 -34 69 -91 120 -166 149 -51 20
-80 23 -313 27 l-258 4 0 -521z m422 289 c58 -16 81 -53 76 -122 -7 -91 -47
-118 -175 -118 l-63 0 0 125 0 125 63 0 c34 0 79 -5 99 -10z"/>
<path d="M11713 8786 c-64 -21 -110 -53 -145 -103 l-33 -45 -3 71 -3 71 -114
0 -115 0 0 -355 0 -355 124 0 124 0 4 213 c3 195 5 215 25 253 49 93 182 101
225 14 16 -30 18 -66 18 -257 l0 -223 126 0 126 0 -4 273 c-4 281 -8 309 -50
370 -47 67 -207 105 -305 73z"/>
<path d="M12897 8786 c-92 -25 -179 -110 -208 -204 -18 -59 -23 -208 -9 -271
34 -153 130 -244 272 -258 99 -9 167 15 234 82 l54 54 0 -60 0 -59 115 0 115
0 0 355 0 355 -115 0 -115 0 0 -56 0 -57 -50 51 c-76 77 -175 100 -293 68z
m281 -212 c15 -11 37 -40 50 -65 19 -36 22 -54 18 -98 -8 -91 -61 -143 -153
-148 -123 -8 -192 74 -172 205 13 88 76 136 172 129 37 -2 67 -10 85 -23z"/>
<path d="M14053 8786 c-50 -16 -88 -45 -125 -93 l-28 -37 0 62 0 62 -125 0
-125 0 0 -355 0 -355 124 0 124 0 4 233 c3 174 7 239 18 260 29 58 117 76 166
33 35 -30 43 -91 43 -343 l1 -183 119 0 119 0 4 223 c5 282 16 314 113 325 57
6 90 -15 104 -65 6 -21 11 -137 11 -260 l0 -223 126 0 126 0 -4 278 c-5 296
-10 325 -61 380 -58 63 -171 87 -271 58 -44 -13 -70 -29 -107 -66 -27 -27 -49
-45 -49 -40 0 6 -16 28 -36 50 -58 64 -171 87 -271 56z"/>
<path d="M10860 8425 l0 -355 125 0 125 0 0 355 0 355 -125 0 -125 0 0 -355z"/>
<path d="M12260 8265 l0 -515 125 0 125 0 0 515 0 515 -125 0 -125 0 0 -515z"/>
</g>
</svg>
