<?xml version="1.0" standalone="no"?>
<!DOCTYPE svg PUBLIC "-//W3C//DTD SVG 20010904//EN"
 "http://www.w3.org/TR/2001/REC-SVG-20010904/DTD/svg10.dtd">
<svg version="1.0" xmlns="http://www.w3.org/2000/svg"
 width="2000.000000pt" height="776.000000pt" viewBox="0 0 2000.000000 776.000000"
 preserveAspectRatio="xMidYMid meet">

<g transform="translate(0.000000,776.000000) scale(0.100000,-0.100000)"
fill="#000000" stroke="none">
<path d="M2540 5558 c-123 -24 -235 -74 -326 -145 -213 -165 -563 -502 -700
-673 -253 -318 -341 -734 -214 -1015 14 -31 19 -78 25 -220 7 -209 26 -365 61
-520 45 -197 77 -240 209 -280 86 -26 267 -55 469 -76 113 -11 356 -8 496 7
52 5 56 4 74 -23 10 -15 32 -39 49 -53 28 -22 40 -25 112 -23 65 1 106 10 220
47 77 25 148 51 157 56 10 6 23 10 29 10 6 0 25 6 42 14 18 8 77 33 132 56
159 65 299 138 334 174 25 26 34 46 42 97 20 121 -8 242 -115 491 -43 101 -45
110 -36 155 6 26 13 136 16 243 7 217 -15 542 -42 640 -19 64 -117 263 -171
347 -145 224 -497 572 -657 652 -106 53 -124 56 -206 39z m206 -675 c90 -86
164 -159 164 -162 0 -3 -42 -14 -93 -24 -153 -31 -270 -98 -365 -210 -38 -44
-79 -114 -139 -237 -47 -96 -109 -207 -139 -247 -53 -71 -149 -159 -204 -188
-78 -40 -167 -26 -237 38 -98 91 -108 170 -38 312 83 168 240 353 463 543 105
90 409 330 420 331 2 1 78 -69 168 -156z m257 -539 c57 -19 116 -75 147 -139
26 -54 37 -164 23 -229 l-8 -38 -115 1 c-179 3 -278 -26 -425 -124 -142 -94
-192 -179 -215 -368 -14 -109 -9 -213 15 -326 9 -44 12 -77 6 -80 -11 -7 -420
6 -469 14 -79 14 -139 114 -149 253 l-6 72 94 0 c142 0 225 31 322 120 30 27
77 83 104 123 27 39 70 101 95 137 25 36 86 144 134 240 76 150 98 184 154
241 108 110 189 139 293 103z m156 -777 c53 -26 87 -65 119 -137 46 -103 110
-316 98 -327 -9 -10 -146 -53 -166 -53 -9 0 -20 -3 -24 -7 -16 -16 -221 -63
-276 -63 -53 0 -92 35 -123 112 -32 80 -42 182 -28 283 13 89 36 127 108 178
69 50 205 56 292 14z"/>
<path d="M9330 4363 c-61 -20 -96 -71 -85 -122 7 -34 50 -76 87 -85 39 -9 94
17 112 53 33 62 12 121 -50 147 -35 15 -40 15 -64 7z"/>
<path d="M10703 4350 c-56 -34 -69 -89 -34 -146 58 -94 201 -52 201 60 0 86
-91 133 -167 86z"/>
<path d="M15583 4350 c-56 -34 -69 -89 -34 -146 58 -94 201 -52 201 60 0 86
-91 133 -167 86z"/>
<path d="M16713 4350 c-56 -34 -69 -89 -34 -146 58 -94 201 -52 201 60 0 86
-91 133 -167 86z"/>
<path d="M10144 4342 c-117 -42 -174 -124 -174 -249 0 -125 50 -177 217 -231
139 -45 176 -93 120 -157 -49 -57 -157 -40 -244 38 l-39 36 -47 -79 c-26 -43
-47 -83 -47 -88 0 -15 100 -80 150 -97 113 -40 257 -25 346 36 146 100 150
355 6 428 -20 10 -75 31 -122 45 -109 33 -130 48 -130 91 0 84 120 100 216 29
l32 -23 36 82 c43 94 44 91 -53 128 -79 30 -201 35 -267 11z"/>
<path d="M4340 3920 l0 -420 110 0 110 0 2 193 3 192 138 -192 138 -193 136 0
c107 0 133 3 126 13 -5 6 -80 103 -167 214 l-157 203 151 200 c82 110 150 202
150 205 0 3 -55 5 -123 5 l-123 0 -128 -185 c-70 -101 -131 -187 -136 -190 -6
-4 -10 67 -10 184 l0 191 -110 0 -110 0 0 -420z"/>
<path d="M14810 3921 l0 -421 105 0 105 0 0 139 0 138 113 5 c157 7 219 37
270 133 18 33 22 57 22 140 0 112 -15 153 -77 212 -62 60 -91 66 -325 71
l-213 4 0 -421z m375 209 c20 -19 25 -33 25 -70 0 -68 -28 -91 -120 -98 l-70
-5 0 103 0 102 70 -4 c56 -3 74 -8 95 -28z"/>
<path d="M5399 4090 c-99 -17 -183 -83 -227 -178 -21 -47 -24 -64 -20 -131 6
-91 28 -140 91 -198 57 -52 88 -69 159 -82 234 -43 428 162 364 384 -23 77
-107 164 -181 188 -66 21 -130 27 -186 17z m132 -176 c75 -38 78 -189 6 -237
-33 -22 -115 -22 -145 -1 -33 23 -52 67 -52 119 0 52 19 96 52 119 29 20 100
20 139 0z"/>
<path d="M6245 4091 c-47 -12 -90 -38 -118 -71 -14 -16 -28 -30 -31 -30 -3 0
-6 20 -6 45 l0 45 -95 0 -95 0 0 -415 0 -415 101 0 101 0 -4 175 -3 174 40
-38 c56 -54 78 -63 154 -63 112 0 173 38 223 139 27 56 32 76 32 146 1 99 -14
157 -59 218 -51 70 -157 110 -240 90z m45 -166 c40 -21 63 -69 63 -130 0 -97
-48 -145 -144 -145 -44 0 -55 4 -84 33 -60 60 -57 179 6 231 36 31 111 36 159
11z"/>
<path d="M6899 4090 c-98 -17 -174 -73 -218 -162 -41 -81 -44 -186 -7 -263 29
-64 102 -129 169 -151 77 -25 209 -23 273 5 50 23 114 76 114 96 0 6 -29 21
-64 34 l-63 22 -38 -25 c-29 -20 -50 -26 -92 -26 -68 0 -111 22 -129 65 -28
68 -37 65 207 65 l221 0 -7 57 c-22 175 -112 269 -275 286 -25 3 -66 1 -91 -3z
m131 -137 c17 -16 34 -43 39 -60 l10 -33 -121 0 -120 0 6 33 c9 50 57 87 111
87 35 0 51 -6 75 -27z"/>
<path d="M7734 4090 c-52 -12 -97 -46 -129 -96 l-30 -48 -3 67 -3 67 -89 0
-90 0 0 -290 0 -290 94 0 94 0 4 158 c3 125 7 164 21 190 27 50 71 72 144 72
l62 0 6 58 c3 31 8 69 11 83 7 36 -24 46 -92 29z"/>
<path d="M8081 4089 c-132 -26 -212 -160 -198 -331 14 -165 106 -261 248 -260
76 0 132 23 172 72 14 16 28 30 31 30 3 0 6 -22 6 -50 l0 -50 90 0 90 0 0 290
0 290 -90 0 -90 0 0 -47 0 -48 -33 37 c-54 62 -134 86 -226 67z m210 -162 c66
-44 77 -166 20 -230 -25 -27 -36 -31 -92 -35 -55 -3 -68 -1 -93 19 -74 58 -74
190 -1 247 39 31 120 30 166 -1z"/>
<path d="M8825 4091 c-103 -18 -167 -81 -168 -168 -1 -94 53 -146 187 -179 95
-24 128 -60 90 -98 -10 -11 -33 -16 -67 -16 -67 0 -115 14 -162 46 -21 14 -38
24 -40 22 -1 -2 -10 -34 -20 -71 -21 -80 -24 -76 75 -108 85 -27 227 -29 285
-5 108 46 155 165 99 251 -19 29 -93 68 -181 94 -46 13 -76 29 -83 41 -13 24
-13 26 6 44 24 25 109 20 171 -9 l53 -24 20 66 c11 36 19 67 18 69 -2 1 -30
11 -63 22 -70 23 -163 33 -220 23z"/>
<path d="M11330 4084 c-19 -8 -54 -34 -77 -57 l-43 -41 0 47 0 47 -100 0 -100
0 0 -290 0 -290 100 0 100 0 0 158 c1 86 5 177 9 202 11 54 48 90 95 90 74 0
85 -37 86 -282 l0 -168 95 0 95 0 0 133 c1 191 12 266 45 294 28 24 74 30 105
13 31 -17 40 -75 40 -262 l0 -178 101 0 101 0 -4 228 c-3 210 -5 230 -25 272
-30 59 -76 90 -147 97 -70 7 -133 -15 -183 -65 -33 -32 -36 -34 -46 -17 -41
74 -159 107 -247 69z"/>
<path d="M12421 4080 c-24 -11 -59 -37 -77 -57 l-34 -37 0 47 0 47 -95 0 -95
0 0 -415 0 -415 100 0 100 0 0 169 0 169 38 -38 c84 -85 246 -76 334 17 53 56
73 118 73 228 0 110 -20 172 -73 228 -66 70 -189 96 -271 57z m79 -153 c42
-21 70 -74 70 -132 0 -94 -56 -149 -143 -142 -38 3 -56 11 -80 36 -30 30 -32
36 -32 105 0 65 3 78 25 101 14 15 34 31 45 35 30 13 87 11 115 -3z"/>
<path d="M13060 4091 c-124 -38 -190 -141 -190 -296 0 -130 44 -223 127 -272
41 -24 59 -28 123 -28 85 0 119 14 175 72 l35 36 0 -51 0 -52 90 0 90 0 0 290
0 290 -90 0 -90 0 0 -41 0 -42 -44 41 c-60 56 -148 76 -226 53z m237 -185 c30
-33 33 -41 33 -101 0 -60 -3 -68 -33 -101 -26 -28 -42 -37 -78 -41 -92 -10
-152 45 -152 142 0 97 55 149 147 142 42 -4 55 -10 83 -41z"/>
<path d="M14000 4091 c-51 -16 -88 -41 -118 -78 l-31 -38 -1 53 0 52 -95 0
-95 0 0 -290 0 -290 99 0 99 0 4 173 c5 193 15 235 67 261 55 29 119 15 140
-31 7 -15 11 -96 11 -213 l0 -190 101 0 100 0 -3 238 c-3 229 -4 238 -27 275
-13 21 -41 47 -64 59 -45 22 -145 33 -187 19z"/>
<path d="M16230 4091 c-51 -16 -88 -41 -118 -78 l-31 -38 -1 53 0 52 -95 0
-95 0 0 -290 0 -290 99 0 99 0 4 173 c5 193 15 235 67 261 55 29 119 15 140
-31 7 -15 11 -96 11 -213 l0 -190 101 0 100 0 -3 238 c-3 229 -4 238 -27 275
-13 21 -41 47 -64 59 -45 22 -145 33 -187 19z"/>
<path d="M17190 4091 c-124 -38 -190 -141 -190 -296 0 -130 44 -223 127 -272
41 -24 59 -28 123 -28 85 0 119 14 175 72 l35 36 0 -51 0 -52 90 0 90 0 0 290
0 290 -90 0 -90 0 0 -41 0 -42 -44 41 c-60 56 -148 76 -226 53z m237 -185 c30
-33 33 -41 33 -101 0 -60 -3 -68 -33 -101 -26 -28 -42 -37 -78 -41 -92 -10
-152 45 -152 142 0 97 55 149 147 142 42 -4 55 -10 83 -41z"/>
<path d="M18110 4084 c-19 -8 -54 -34 -77 -57 l-43 -41 0 47 0 47 -100 0 -100
0 0 -290 0 -290 100 0 100 0 0 158 c1 86 5 177 9 202 11 54 48 90 95 90 74 0
85 -37 86 -282 l0 -168 95 0 95 0 0 133 c1 191 12 266 45 294 28 24 74 30 105
13 31 -17 40 -75 40 -262 l0 -178 101 0 101 0 -4 228 c-3 210 -5 230 -25 272
-30 59 -76 90 -147 97 -70 7 -133 -15 -183 -65 -33 -32 -36 -34 -46 -17 -41
74 -159 107 -247 69z"/>
<path d="M9260 3790 l0 -290 95 0 95 0 0 290 0 290 -95 0 -95 0 0 -290z"/>
<path d="M10660 3790 l0 -290 100 0 100 0 0 290 0 290 -100 0 -100 0 0 -290z"/>
<path d="M15540 3790 l0 -290 100 0 100 0 0 290 0 290 -100 0 -100 0 0 -290z"/>
<path d="M16670 3665 l0 -415 100 0 100 0 0 415 0 415 -100 0 -100 0 0 -415z"/>
</g>
</svg>
